<svg>
  <defs>
    <g id="add">
      <path d="M19 13h-6v6h-2v-6H5v-2h6V5h2v6h6v2z"/>
    </g>
    <g id="anchor">
      <path d="M 12.0025,2.0025C 10.3413,2.0025 8.99875,3.34448 8.99875,5C 8.99875,6.27 9.8,7.4025 11.0013,7.8275L 11.0013,10L 7.9975,10L 7.9975,12.0025L 11.0013,12.0025L 11.0013,18.9162C 9.16,18.6275 7.53375,17.5688 6.53375,16.0012L 7.9975,16.0012L 7.9975,13.9987L 2.9975,13.9987L 2.9975,18.9988L 5,18.9988L 5,17.3C 6.5825,19.6087 9.19875,20.9963 12.0025,21.0012C 14.8,20.9963 17.4175,19.6137 18.9988,17.305L 18.9988,18.9988L 21.0013,18.9988L 21.0013,13.9987L 16.0012,13.9987L 16.0012,16.0012L 17.4613,16.0012C 16.46,17.5637 14.8337,18.6275 12.9975,18.9162L 12.9975,12.0025L 16.0012,12.0025L 16.0012,10L 12.9975,10L 12.9975,7.8225C 14.1988,7.4025 15,6.27 15,5C 15,3.34448 13.6575,2.0025 12.0025,2.0025 Z M 12.0025,3.99875C 12.5537,3.99875 12.9975,4.44875 12.9975,5C 12.9975,5.55125 12.5537,6.00125 12.0025,6.00125C 11.445,6.00125 11.0013,5.55125 11.0013,5C 11.0013,4.44875 11.445,3.99875 12.0025,3.99875 Z "/>
    </g>
    <g id="application">
      <path d="M 19,4C 20.11,4 21,4.9 21,6L 21,18C 21,19.1 20.1,20 19,20L 5,20C 3.89,20 3,19.1 3,18L 3,6C 3,4.9 3.89,4 5,4L 19,4 Z M 19,18L 19,8L 5,8L 5,18L 19,18 Z "/>
    </g>
    <g id="at">
      <path d="M 17.4226,15C 17.7928,14.0907 18,13.0736 18,12C 18,8.13401 15.3137,5.00001 12,5.00001C 8.68629,5.00001 6,8.13401 6,12C 6,15.866 8.68629,19 12,19C 13.5367,19 15,19 16,18.2176L 16,20.546C 15,21 13.4571,21 12,21C 7.58172,21 4,16.9706 4,12C 4,7.02944 7.58172,3 12,3C 16.4183,3 20,7.02944 20,12C 20,13.8501 19.5038,15.5699 18.6528,17L 14,17L 14,15.4993C 13.3647,16.4254 12.4793,17 11.5,17C 9.567,17 8,14.7614 8,12C 8,9.23858 9.567,7 11.5,7C 12.4793,7 13.3647,7.57462 14,8.50073L 14,8L 16,8L 16,15L 17.4226,15 Z M 12,9C 10.8954,9 10,10.3431 10,12C 10,13.6569 10.8954,15 12,15C 13.1046,15 14,13.6569 14,12C 14,10.3431 13.1046,9 12,9 Z "/>
    </g>
    <g id="bitbucket">
      <path d="M 11.9985,5.76235C 15.0625,5.7672 17.5473,5.24297 17.5484,4.59089C 17.5494,3.93868 15.0664,3.40637 12.0024,3.40153C 8.93833,3.39655 6.45346,3.92091 6.45242,4.57299C 6.45138,5.22507 8.93447,5.75738 11.9985,5.76235 Z M 12,14.3954C 13.5209,14.3954 14.7538,13.1623 14.7538,11.6416C 14.7538,10.1206 13.5209,8.88778 12,8.88778C 10.4791,8.88778 9.24621,10.1206 9.24621,11.6416C 9.24621,13.1623 10.4791,14.3954 12,14.3954 Z M 12.0001,2.00001C 16.769,2.00001 20.663,3.2821 20.663,4.874C 20.663,5.29331 19.623,11.3055 19.2104,13.6898C 19.0255,14.7591 16.2622,16.3269 12.0022,16.3269L 12.0022,16.3142L 11.9978,16.3269C 7.73778,16.3269 4.9745,14.7591 4.78952,13.6898C 4.37698,11.3055 3.33704,5.29331 3.33704,4.874C 3.33704,3.2821 7.23106,2.00001 12.0001,2.00001 Z M 18.2263,16.0794C 18.3837,16.0794 18.5328,16.1852 18.5328,16.4183L 18.5259,16.4916C 18.1948,18.2637 17.9529,19.5211 17.9104,19.7126C 17.6213,21.0162 15.0713,21.9999 12.0002,22L 11.9998,22C 8.92874,21.9999 6.37864,21.0162 6.0896,19.7126C 6.04714,19.5211 5.80519,18.2637 5.4741,16.4916L 5.46719,16.4183C 5.46719,16.1852 5.61634,16.0794 5.77366,16.0794C 5.90533,16.0794 6.01092,16.1727 6.01092,16.1727C 6.01092,16.1727 8.14423,17.8619 12,17.8621C 15.8558,17.8619 17.9891,16.1727 17.9891,16.1727C 17.9891,16.1727 18.0946,16.0794 18.2263,16.0794 Z M 13.3774,11.6407C 13.3774,12.403 12.7595,13.0208 11.9973,13.0208C 11.2351,13.0208 10.6172,12.403 10.6172,11.6407C 10.6172,10.8784 11.2351,10.2607 11.9973,10.2607C 12.7595,10.2607 13.3774,10.8784 13.3774,11.6407 Z "/>
    </g>
    <g id="block">
      <path d="M12 2C6.48 2 2 6.48 2 12s4.48 10 10 10 10-4.48 10-10S17.52 2 12 2zM4 12c0-4.42 3.58-8 8-8 1.85 0 3.55.63 4.9 1.69L5.69 16.9C4.63 15.55 4 13.85 4 12zm8 8c-1.85 0-3.55-.63-4.9-1.69L18.31 7.1C19.37 8.45 20 10.15 20 12c0 4.42-3.58 8-8 8z"/>
    </g>
    <g id="box">
      <path d="M 15.3875,14.0365L 15.3875,14.036C 15.3872,12.6207 14.2399,11.4738 12.8249,11.4738C 11.4097,11.4738 10.2626,12.6207 10.2623,14.036L 10.2623,14.0365C 10.2626,15.4515 11.4097,16.5985 12.8249,16.5985C 14.2399,16.5985 15.3872,15.4515 15.3875,14.0365 Z M 17.0971,14.0365C 17.0971,16.3958 15.1844,18.3088 12.8248,18.3088C 11.189,18.3088 9.76858,17.3888 9.05078,16.0386C 8.33297,17.3888 6.9125,18.3088 5.27667,18.3088C 2.94091,18.3088 1.04416,16.4338 1.00619,14.1072L 1.00442,14.1072L 1.00442,14.1067L 1.00442,7.01928L 1.00442,7.01883L 1.00483,7.01883C 1.01468,6.55506 1.39301,6.1819 1.85921,6.1819C 2.32541,6.1819 2.70378,6.55506 2.7137,7.01883L 2.7141,7.01883L 2.7141,7.01928L 2.7141,10.6175C 3.42801,10.0814 4.31521,9.76363 5.27667,9.76363C 6.9125,9.76363 8.33297,10.6834 9.05078,12.0336C 9.76859,10.6834 11.1891,9.76363 12.8248,9.76363C 15.1844,9.76363 17.0971,11.6764 17.0971,14.036L 17.0971,14.0365 Z M 7.83928,14.0365L 7.83928,14.036C 7.83902,12.6207 6.69183,11.4738 5.27667,11.4738C 3.86154,11.4738 2.71437,12.6207 2.7141,14.036L 2.7141,14.0365C 2.71437,15.4515 3.86154,16.5985 5.27667,16.5985C 6.69183,16.5985 7.83901,15.4515 7.83928,14.0365 Z M 22.8442,16.9643L 22.844,16.9644C 22.9546,17.1186 23.0069,17.2977 23.0044,17.4746C 23.001,17.7302 22.8835,17.9814 22.6631,18.1469C 22.5094,18.2625 22.3294,18.3181 22.1509,18.3181C 21.8968,18.3181 21.6456,18.2051 21.4771,17.991L 19.5887,15.4666L 17.7003,17.991L 17.7,17.9907C 17.5317,18.2051 17.2806,18.3181 17.0264,18.3181C 16.848,18.3181 16.6679,18.2623 16.5141,18.1467C 16.289,17.9777 16.1712,17.7191 16.1729,17.4578C 16.1738,17.2863 16.2262,17.1137 16.3334,16.9644L 16.3333,16.9643L 16.3335,16.9639L 16.3333,16.9638L 18.521,14.0394L 16.3333,11.1149L 16.3335,11.1148L 16.3333,11.1144L 16.3334,11.1143C 16.2241,10.9621 16.1718,10.7855 16.1729,10.6107C 16.1743,10.3529 16.2919,10.0988 16.5141,9.9319C 16.8869,9.65189 17.4135,9.72301 17.7,10.088L 17.7003,10.0876L 19.5887,12.612L 21.4774,10.0878C 21.7638,9.72291 22.2904,9.65178 22.6631,9.93172C 22.8901,10.1022 23.0079,10.3635 23.0044,10.627C 23.0022,10.7964 22.9499,10.9667 22.844,11.1143L 22.8442,11.1144L 22.844,11.1147L 22.8442,11.1149L 20.6564,14.0394L 22.8442,16.9638L 22.844,16.964L 22.8442,16.9643 Z "/>
    </g>
    <g id="car">
      <path d="M 4.9994,10.9981L 6.4994,6.49807L 17.4994,6.49807L 18.9994,10.9981M 17.4994,15.9981C 16.6714,15.9981 15.9994,15.3261 15.9994,14.4981C 15.9994,13.6701 16.6714,12.9981 17.4994,12.9981C 18.3284,12.9981 18.9994,13.6701 18.9994,14.4981C 18.9994,15.3261 18.3284,15.9981 17.4994,15.9981 Z M 6.4994,15.9981C 5.6714,15.9981 4.9994,15.3261 4.9994,14.4981C 4.9994,13.6701 5.6714,12.9981 6.4994,12.9981C 7.3284,12.9981 7.9994,13.6701 7.9994,14.4981C 7.9994,15.3261 7.3284,15.9981 6.4994,15.9981 Z M 18.9184,6.00907C 18.7154,5.42006 18.1564,4.99807 17.4994,4.99807L 6.4994,4.99807C 5.8424,4.99807 5.2844,5.42006 5.0814,6.00907L 2.9994,11.9981L 2.9994,19.9981C 2.9994,20.5501 3.4474,20.9981 3.9994,20.9981L 4.9994,20.9981C 5.5524,20.9981 5.9994,20.5501 5.9994,19.9981L 5.9994,18.9981L 17.9994,18.9981L 17.9994,19.9981C 17.9994,20.5501 18.4474,20.9981 18.9994,20.9981L 19.9994,20.9981C 20.5524,20.9981 20.9994,20.5501 20.9994,19.9981L 20.9994,11.9981L 18.9184,6.00907 Z "/>
    </g>
    <g id="cat">
      <path d="M 12,8L 10.6687,8.08959C 9.80876,7.06936 7.40438,4.5 5,4.5C 5,4.5 3.02867,7.457 4.95746,11.4139C 4.40888,12.2385 4.07331,12.6705 4.01069,13.6611L 2.06643,13.9511L 2.27787,14.9286L 4.04257,14.6746L 4.18115,15.3818L 2.60897,16.3243L 3.08176,17.211L 4.52537,16.3216C 5.67562,18.7649 8.58842,20 12,20C 15.4116,20 18.3244,18.7649 19.4746,16.3216L 20.9182,17.211L 21.391,16.3243L 19.8188,15.3818L 19.9574,14.6746L 21.7221,14.9286L 21.9336,13.9511L 19.9893,13.6611C 19.9267,12.6705 19.5911,12.2385 19.0425,11.4139C 20.9713,7.45701 19,4.50001 19,4.5C 16.5956,4.5 14.1912,7.06936 13.3313,8.0896L 12,8 Z M 9,11C 9.55228,11 10,11.4477 10,12C 10,12.5523 9.55228,13 9,13C 8.44771,13 7.99999,12.5523 7.99999,12C 7.99999,11.4477 8.44771,11 9,11 Z M 15,11C 15.5523,11 16,11.4477 16,12C 16,12.5523 15.5523,13 15,13C 14.4477,13 14,12.5523 14,12C 14,11.4477 14.4477,11 15,11 Z M 11,14L 13,14L 12.3025,15.3949C 12.4759,16.0318 13.0583,16.5 13.75,16.5C 14.5784,16.5 15.25,15.8284 15.25,15L 15.75,15C 15.75,16.1046 14.8546,17 13.75,17C 13.003,17 12.3516,16.5904 12.0082,15.9836L 12,16L 11.9918,15.9836C 11.6484,16.5904 10.997,17 10.25,17C 9.14543,17 8.25,16.1046 8.25,15L 8.75,15C 8.75,15.8284 9.42157,16.5 10.25,16.5C 10.9417,16.5 11.5241,16.0318 11.6975,15.3949L 11,14 Z "/>
    </g>
    <g id="check">
      <path d="M9 16.17L4.83 12l-1.42 1.41L9 19 21 7l-1.41-1.41z"/>
    </g>
    <g id="city">
      <path d="M 18.9994,14.9981L 16.9994,14.9981L 16.9994,12.9981L 18.9994,12.9981M 18.9994,18.9981L 16.9994,18.9981L 16.9994,16.9981L 18.9994,16.9981M 12.9994,6.99807L 10.9994,6.99807L 10.9994,4.99807L 12.9994,4.99807M 12.9994,10.9981L 10.9994,10.9981L 10.9994,8.99807L 12.9994,8.99807M 12.9994,14.9981L 10.9994,14.9981L 10.9994,12.9981L 12.9994,12.9981M 12.9994,18.9981L 10.9994,18.9981L 10.9994,16.9981L 12.9994,16.9981M 6.99939,10.9981L 4.99939,10.9981L 4.99939,8.99807L 6.99939,8.99807M 6.99939,14.9981L 4.99939,14.9981L 4.99939,12.9981L 6.99939,12.9981M 6.99939,18.9981L 4.99939,18.9981L 4.99939,16.9981L 6.99939,16.9981M 14.9994,10.9981L 14.9994,4.99807L 11.9994,1.99807L 8.99939,4.99807L 8.99939,6.99807L 2.99939,6.99807L 2.99939,20.9981L 20.9994,20.9981L 20.9994,10.9981L 14.9994,10.9981 Z "/>
    </g>
    <g id="class">
      <path d="M18 2H6c-1.1 0-2 .9-2 2v16c0 1.1.9 2 2 2h12c1.1 0 2-.9 2-2V4c0-1.1-.9-2-2-2zM6 4h5v8l-2.5-1.5L6 12V4z"/>
    </g>
    <g id="close">
      <path d="M19 6.41L17.59 5 12 10.59 6.41 5 5 6.41 10.59 12 5 17.59 6.41 19 12 13.41 17.59 19 19 17.59 13.41 12z"/>
    </g>
    <g id="code">
      <path d="M9.4 16.6L4.8 12l4.6-4.6L8 6l-6 6 6 6 1.4-1.4zm5.2 0l4.6-4.6-4.6-4.6L16 6l6 6-6 6-1.4-1.4z"/>
    </g>
    <g id="console">
      <path d="M 19.999,18.9981L 19.999,6.99808L 3.99918,6.99808L 3.99919,18.9991L 19.999,18.9981 Z M 19.999,2.99807C 21.103,2.99807 21.999,3.89407 21.999,4.99807L 21.999,18.9981C 21.999,20.1031 21.103,20.9981 19.999,20.9981L 3.99914,20.9981C 2.89514,20.9981 1.99915,20.1031 1.99915,18.9981L 1.99915,4.99807C 1.99915,3.89407 2.89514,2.99807 3.99914,2.99807L 19.999,2.99807 Z M 13,17L 13,15L 18,15L 18,17L 13,17 Z M 9.58038,13.0095L 5.5709,9L 8.39933,9L 11.7017,12.3024C 12.0922,12.6929 12.0922,13.3261 11.7017,13.7166L 8.41828,17L 5.58985,17L 9.58038,13.0095 Z "/>
    </g>
    <g id="copyright">
      <g>
        <defs>
          <rect id="SVG_CLIPPER1_" x="1.27157e-006" y="0" width="24" height="24"/>
        </defs>
        <clipPath id="SVG_CLIPPER2_">
          <use xlink:href="#SVG_CLIPPER1_" overflow="visible"/>
        </clipPath>
        <g clip-path="url(#SVG_CLIPPER2_)">
          <path fill="#000000" fill-opacity="1" stroke-width="1.33333" stroke-linejoin="miter"
                d="M 10.08,10.86C 10.13,10.53 10.24,10.24 10.38,9.99C 10.52,9.74 10.72,9.53 10.97,9.37C 11.21,9.22 11.51,9.15 11.88,9.14C 12.11,9.15 12.32,9.19 12.51,9.27C 12.71,9.36 12.89,9.48 13.03,9.63C 13.17,9.78 13.28,9.96 13.37,10.16C 13.46,10.36 13.5,10.58 13.51,10.8L 15.3,10.8C 15.28,10.33 15.19,9.9 15.02,9.51C 14.85,9.12 14.62,8.78 14.32,8.5C 14.02,8.22 13.66,8 13.24,7.84C 12.82,7.68 12.36,7.61 11.85,7.61C 11.2,7.61 10.63,7.72 10.15,7.95C 9.67,8.18 9.27,8.48 8.95,8.87C 8.63,9.26 8.39,9.71 8.24,10.23C 8.09,10.75 8,11.29 8,11.87L 8,12.14C 8,12.72 8.08,13.26 8.23,13.78C 8.38,14.3 8.62,14.75 8.94,15.13C 9.26,15.51 9.66,15.82 10.14,16.04C 10.62,16.26 11.19,16.38 11.84,16.38C 12.31,16.38 12.75,16.3 13.16,16.15C 13.57,16 13.93,15.79 14.24,15.52C 14.55,15.25 14.8,14.94 14.98,14.58C 15.16,14.22 15.27,13.84 15.28,13.43L 13.49,13.43C 13.48,13.64 13.43,13.83 13.34,14.01C 13.25,14.19 13.13,14.34 12.98,14.47C 12.83,14.6 12.66,14.7 12.46,14.77C 12.27,14.84 12.07,14.86 11.86,14.87C 11.5,14.86 11.2,14.79 10.97,14.64C 10.72,14.48 10.52,14.27 10.38,14.02C 10.24,13.77 10.13,13.47 10.08,13.14C 10.03,12.81 10,12.47 10,12.14L 10,11.87C 10,11.52 10.03,11.19 10.08,10.86 Z M 12,2C 6.48,2 2,6.48 2,12C 2,17.52 6.48,22 12,22C 17.52,22 22,17.52 22,12C 22,6.48 17.52,2 12,2 Z M 12,20C 7.59,20 4,16.41 4,12C 4,7.59 7.59,4 12,4C 16.41,4 20,7.59 20,12C 20,16.41 16.41,20 12,20 Z "/>
        </g>
      </g>
    </g>
    <g id="dashboard">
      <path d="M3 13h8V3H3v10zm0 8h8v-6H3v6zm10 0h8V11h-8v10zm0-18v6h8V3h-8z"/>
    </g>
    <g id="data">
      <path d="M 13.0004,2.00054L 13.0004,5.02898C 16.3922,5.51567 19.0001,8.42412 19.0001,11.9498C 19.0001,12.8451 18.8248,13.6983 18.5182,14.4855L 21.1189,16.0195C 21.6764,14.7746 22.0001,13.402 22.0001,11.9498C 22.0001,6.76616 18.0543,2.5042 13.0004,2.00054M 11.0003,2.00005C 5.94204,2.49895 2.00002,6.76238 2.00002,11.9498C 2.00002,17.4727 6.46853,21.9497 11.9949,21.9497C 15.3054,21.9497 18.2315,20.3365 20.0521,17.8606L 17.4561,16.3295C 16.1737,17.9257 14.2083,18.9498 12.0001,18.9498C 8.13308,18.9498 5.00014,15.8154 5.00014,11.9498C 5.00014,8.42412 7.60805,5.51567 11.0003,5.02898L 11.0003,2.00005"/>
    </g>
    <g id="delete">
      <path d="M 19,4L 15.5,4L 14.5,3L 9.5,3L 8.5,4L 5,4L 5,6L 19,6M 6,19C 6,20.1 6.9,21 8,21L 16,21C 17.1,21 18,20.1 18,19L 18,7L 6,7L 6,19 Z "/>
    </g>
    <g id="details">
      <path d="M 6.38,6L 17.63,6L 12,16L 6.38,6 Z M 3,4L 12,20L 21,4L 3,4 Z "/>
    </g>
    <g id="done">
      <path d="M9 16.2L4.8 12l-1.4 1.4L9 19 21 7l-1.4-1.4L9 16.2z"/>
    </g>
    <g id="drag">
      <path d="M 7,19L 7,17L 9,17L 9,19L 7,19 Z M 11,19L 11,17L 13,17L 13,19L 11,19 Z M 15,19L 15,17L 17,17L 17,19L 15,19 Z M 7,15L 7,13L 9,13L 9,15L 7,15 Z M 11,15L 11,13L 13,13L 13,15L 11,15 Z M 15,15L 15,13L 17,13L 17,15L 15,15 Z M 7,11L 7,9.00001L 9,9.00001L 9,11L 7,11 Z M 11,11L 11,9.00001L 13,9.00001L 13,11L 11,11 Z M 15,11L 15,9.00001L 17,9.00001L 17,11L 15,11 Z M 7,7.00001L 7,5.00001L 9,5.00001L 9,7.00001L 7,7.00001 Z M 11,7.00001L 11,5.00001L 13,5.00001L 13,7.00001L 11,7.00001 Z M 15,7.00001L 15,5.00001L 17,5.00001L 17,7.00001L 15,7.00001 Z "/>
    </g>
    <g id="eject">
      <path d="M 12,5L 5.33,15L 18.67,15M 5,17L 19,17L 19,19L 5,19L 5,17 Z "/>
    </g>
    <g id="error">
      <path d="M12 2C6.48 2 2 6.48 2 12s4.48 10 10 10 10-4.48 10-10S17.52 2 12 2zm1 15h-2v-2h2v2zm0-4h-2V7h2v6z"/>
    </g>
    <g id="event">
      <path d="M17 12h-5v5h5v-5zM16 1v2H8V1H6v2H5c-1.11 0-1.99.9-1.99 2L3 19c0 1.1.89 2 2 2h14c1.1 0 2-.9 2-2V5c0-1.1-.9-2-2-2h-1V1h-2zm3 18H5V8h14v11z"/>
    </g>
    <g id="factory">
      <path d="M 4,18L 4,20L 8,20L 8,18L 4,18 Z M 4,14L 4,16L 14,16L 14,14L 4,14 Z M 10,18L 10,20L 14,20L 14,18L 10,18 Z M 16,14L 16,16L 20,16L 20,14L 16,14 Z M 16,18L 16,20L 20,20L 20,18L 16,18 Z M 2,22L 2,8.00001L 7,12L 7,8.00001L 12,12L 12,8.00001L 17,12L 18,2.00001L 21,2L 22,12L 22,22L 2,22 Z "/>
    </g>
    <g id="file">
      <path d="M 12.9994,8.99807L 12.9994,3.49807L 18.4994,8.99807M 5.99939,1.99807C 4.89438,1.99807 4.0094,2.89406 4.0094,3.99807L 3.99939,19.9981C 3.99939,21.1021 4.88538,21.9981 5.98938,21.9981L 17.9994,21.9981C 19.1034,21.9981 19.9994,21.1021 19.9994,19.9981L 19.9994,7.99807L 13.9994,1.99807L 5.99939,1.99807 Z "/>
    </g>
    <g id="fill">
      <path d="M 19,11.5C 19,11.5 17,13.667 17,15C 17,16.104 17.896,17 19,17C 20.104,17 21,16.104 21,15C 21,13.667 19,11.5 19,11.5 Z M 14.7187,9.97917L 5.207,10L 10,5.208L 14.7187,9.97917 Z M 16.561,8.939L 7.621,0L 6.207,1.414L 8.586,3.793L 3.439,8.939C 2.854,9.525 2.854,10.475 3.439,11.061L 8.939,16.561C 9.232,16.854 9.616,17 10,17C 10.384,17 10.768,16.854 11.061,16.561L 16.561,11.061C 17.146,10.475 17.146,9.525 16.561,8.939 Z "/>
      <rect x="0" y="20" width="24" height="4"/>
    </g>
    <g id="filter">
      <path d="M 3,2L 20.9888,2L 21,2L 21,2.01122L 21,3.99999L 20.9207,3.99999L 14,10.9207L 14,22.909L 9.99999,18.909L 10,10.906L 3.09405,3.99999L 3,3.99999L 3,2 Z "/>
    </g>
    <g id="function">
      <path d="M 15.5987,5.28811C 14.4983,5.19184 13.5282,6.00582 13.432,7.10618L 13.1788,10L 16,10L 16,12L 13.0038,12L 12.5604,17.0681C 12.3679,19.2689 10.4278,20.8968 8.22702,20.7043C 6.9208,20.59 5.81636,19.8601 5.1746,18.8254L 6.67042,17.3296C 6.90899,18.0735 7.57426,18.6395 8.40133,18.7119C 9.50169,18.8082 10.4718,17.9942 10.568,16.8938L 10.9962,12L 8,12L 8,10L 11.1712,10L 11.4396,6.93188C 11.6321,4.73115 13.5722,3.10319 15.773,3.29573C 17.0792,3.41001 18.1836,4.13994 18.8254,5.1746L 17.3296,6.67041C 17.091,5.92647 16.4257,5.36046 15.5987,5.28811 Z "/>
    </g>
    <g id="git">
      <path d="M 2.59548,10.5858L 8.38353,4.79774L 10.0679,6.48216C 9.83331,7.35316 10.2158,8.2809 11,8.73229L 11,14.2676C 10.4022,14.6134 10,15.2597 10,16C 10,17.1046 10.8954,18 12,18C 13.1046,18 14,17.1046 14,16C 14,15.2597 13.5978,14.6134 13,14.2676L 13,9.41421L 15.0677,11.482C 15.0236,11.6472 15,11.8208 15,12C 15,13.1046 15.8954,14 17,14C 18.1046,14 19,13.1046 19,12C 19,10.8954 18.1046,10 17,10C 16.8208,10 16.6472,10.0236 16.482,10.0677L 13.932,7.51784C 14.1875,6.5694 13.7113,5.55369 12.7815,5.15899C 12.3539,4.97751 11.8986,4.95622 11.4823,5.06808L 9.79774,3.38353L 10.5858,2.59548C 11.3668,1.81444 12.6332,1.81444 13.4142,2.59548L 21.4045,10.5858C 22.1856,11.3668 22.1856,12.6332 21.4045,13.4142L 13.4142,21.4045C 12.6332,22.1856 11.3668,22.1856 10.5858,21.4045L 2.59548,13.4142C 1.81443,12.6332 1.81443,11.3668 2.59548,10.5858 Z "/>
    </g>
    <g id="github">
      <path fill-rule="evenodd"
            d="M 11.9991,2C 6.47774,2 2.00001,6.47712 2.00001,12.0006C 2.00001,16.4184 4.86504,20.1665 8.83877,21.489C 9.33909,21.5807 9.52142,21.272 9.52142,21.007C 9.52142,20.7696 9.51282,20.1407 9.50791,19.3062C 6.72636,19.9105 6.13948,17.9657 6.13948,17.9657C 5.68459,16.8105 5.02895,16.5029 5.02895,16.5029C 4.121,15.8824 5.09771,15.895 5.09771,15.895C 6.10143,15.9657 6.62936,16.9256 6.62936,16.9256C 7.52135,18.4537 8.97014,18.0125 9.53984,17.7565C 9.63069,17.1102 9.88914,16.6696 10.1746,16.4196C 7.95415,16.1672 5.61952,15.3093 5.61952,11.4773C 5.61952,10.3856 6.00934,9.49292 6.64902,8.79388C 6.54588,8.54089 6.20271,7.52417 6.74723,6.14739C 6.74723,6.14739 7.58643,5.87851 9.49686,7.17252C 10.2943,6.95073 11.1501,6.8398 12.0003,6.83594C 12.8499,6.8398 13.7051,6.95073 14.5038,7.17252C 16.413,5.87851 17.2509,6.14739 17.2509,6.14739C 17.7967,7.52417 17.4535,8.54089 17.351,8.79388C 17.9919,9.49292 18.3787,10.3856 18.3787,11.4773C 18.3787,15.3189 16.0403,16.1642 13.8131,16.4118C 14.1717,16.7205 14.4915,17.3308 14.4915,18.2637C 14.4915,19.6005 14.4792,20.6791 14.4792,21.007C 14.4792,21.2744 14.6597,21.5855 15.1668,21.4878C 19.1374,20.1629 22,16.4172 22,12.0006C 22,6.47712 17.5223,2 11.9991,2 Z "/>
    </g>
    <g id="grid">
      <path d="M 10,4L 10,8L 14,8L 14,3.99999L 10,4 Z M 16,3.99999L 16,8L 20.0059,8L 20,3.99999L 16,3.99999 Z M 16,10L 16,14L 20.0147,14L 20.0088,10L 16,10 Z M 16,16L 16,20L 20.0234,20L 20.0176,16L 16,16 Z M 14,20L 14,16L 10,16L 10,20L 14,20 Z M 8.00001,20L 8.00001,16L 4.01758,16L 4.02344,20L 8.00001,20 Z M 8,14L 8,10L 4.00879,10L 4.01465,14L 8,14 Z M 8,8L 8,4L 4,4L 4.00586,8L 8,8 Z M 10,14L 14,14L 14,10L 10,10L 10,14 Z M 4,2.00001L 20,1.99999C 21.1046,1.99999 22,2.89542 22,3.99999L 22.0235,20C 22.0235,21.1046 21.128,22 20.0235,22L 4.02345,22C 2.91888,22 2.02344,21.1046 2.02344,20L 2,4C 2,2.89543 2.89543,2.00001 4,2.00001 Z "/>
    </g>
    <g id="group">
      <path d="M16 11c1.66 0 2.99-1.34 2.99-3S17.66 5 16 5c-1.66 0-3 1.34-3 3s1.34 3 3 3zm-8 0c1.66 0 2.99-1.34 2.99-3S9.66 5 8 5C6.34 5 5 6.34 5 8s1.34 3 3 3zm0 2c-2.33 0-7 1.17-7 3.5V19h14v-2.5c0-2.33-4.67-3.5-7-3.5zm8 0c-.29 0-.62.02-.97.05 1.16.84 1.97 1.97 1.97 3.45V19h6v-2.5c0-2.33-4.67-3.5-7-3.5z"/>
    </g>
    <g id="highlight">
      <path d="M6 14l3 3v5h6v-5l3-3V9H6zm5-12h2v3h-2zM3.5 5.875L4.914 4.46l2.12 2.122L5.62 7.997zm13.46.71l2.123-2.12 1.414 1.414L18.375 8z"/>
    </g>
    <g id="http">
      <path d="M4.5 11h-2V9H1v6h1.5v-2.5h2V15H6V9H4.5v2zm2.5-.5h1.5V15H10v-4.5h1.5V9H7v1.5zm5.5 0H14V15h1.5v-4.5H17V9h-4.5v1.5zm9-1.5H18v6h1.5v-2h2c.8 0 1.5-.7 1.5-1.5v-1c0-.8-.7-1.5-1.5-1.5zm0 2.5h-2v-1h2v1z"/>
    </g>
    <g id="https">
      <path d="M18 8h-1V6c0-2.76-2.24-5-5-5S7 3.24 7 6v2H6c-1.1 0-2 .9-2 2v10c0 1.1.9 2 2 2h12c1.1 0 2-.9 2-2V10c0-1.1-.9-2-2-2zm-6 9c-1.1 0-2-.9-2-2s.9-2 2-2 2 .9 2 2-.9 2-2 2zm3.1-9H8.9V6c0-1.71 1.39-3.1 3.1-3.1 1.71 0 3.1 1.39 3.1 3.1v2z"/>
    </g>
    <g id="image">
      <path d="M 18.9989,3L 4.9911,3C 3.886,3 3.00001,3.89551 3.00001,5L 3.00001,19C 3.00001,20.1045 3.886,21 4.9911,21L 18.9989,21C 20.104,21 21,20.1045 21,19L 21,5C 21,3.89551 20.104,3 18.9989,3 Z M 18.9989,15.5C 18.9989,15.7761 18.7749,16 18.4986,16L 5.49138,16C 5.21511,16 4.9911,15.7761 4.9911,15.5L 4.9911,8.5C 4.9911,8.22388 5.21511,8 5.49138,8L 18.4986,8C 18.7749,8 18.9989,8.22388 18.9989,8.5L 18.9989,15.5 Z "/>
    </g>
    <g id="import">
      <path d="M 14,12L 10,8L 10,11L 2.00001,11L 2.00001,13L 10,13L 10,16M 20,18L 20,6.00002C 20,4.89002 19.1,4.00002 18,4.00002L 6,4.00001C 4.9,4.00001 4,4.89001 4,6.00001L 4,9L 6,9L 6,6.00001L 18,6.00002L 18,18L 6,18L 6,15L 4,15L 4,18C 4,19.1 4.9,20 6,20L 18,20C 19.1,20 20,19.11 20,18 Z "/>
    </g>
    <g id="info">
      <path d="M12 2C6.48 2 2 6.48 2 12s4.48 10 10 10 10-4.48 10-10S17.52 2 12 2zm1 15h-2v-6h2v6zm0-8h-2V7h2v2z"/>
    </g>
    <g id="information">
      <path d="M 12.9994,8.99805L 10.9994,8.99805L 10.9994,6.99805L 12.9994,6.99805M 12.9994,16.998L 10.9994,16.998L 10.9994,10.998L 12.9994,10.998M 11.9994,1.99805C 6.47642,1.99805 1.99943,6.47504 1.99943,11.998C 1.99943,17.5211 6.47642,21.998 11.9994,21.998C 17.5224,21.998 21.9994,17.5211 21.9994,11.998C 21.9994,6.47504 17.5224,1.99805 11.9994,1.99805 Z "/>
    </g>
    <g id="input">
      <path d="M21 3.01H3c-1.1 0-2 .9-2 2V9h2V4.99h18v14.03H3V15H1v4.01c0 1.1.9 1.98 2 1.98h18c1.1 0 2-.88 2-1.98v-14c0-1.11-.9-2-2-2zM11 16l4-4-4-4v3H1v2h10v3z"/>
    </g>
    <g id="json">
      <path d="M 5,3L 7,3L 7,5L 5,5L 5,10C 5,11.1046 4.10457,12 3,12C 4.10457,12 5,12.8954 5,14L 5,19L 7,19L 7,21L 5,21C 3.92841,20.7321 3,20.1046 3,19L 3,15C 3,13.8954 2.10457,13 1,13L 0,13L 0,11L 1,11C 2.10457,11 3,10.1046 3,9L 3,5C 3,3.89539 3.89543,3 5,3 Z M 19,3.00001C 20.1046,3.00001 21,3.8954 21,5.00001L 21,9.00001C 21,10.1046 21.8954,11 23,11L 24,11L 24,13L 23,13C 21.8954,13 21,13.8954 21,15L 21,19C 21,20.1046 20.0716,20.7321 19,21L 17,21L 17,19L 19,19L 19,14C 19,12.8954 19.8954,12 21,12C 19.8954,12 19,11.1046 19,10L 19,5.00001L 17,5.00001L 17,3.00001L 19,3.00001 Z M 12,15C 12.5523,15 13,15.4477 13,16C 13,16.5523 12.5523,17 12,17C 11.4477,17 11,16.5523 11,16C 11,15.4477 11.4477,15 12,15 Z M 8,15C 8.55229,15 9,15.4477 9,16C 9,16.5523 8.55228,17 8,17C 7.44772,17 7,16.5523 7,16C 7,15.4477 7.44771,15 8,15 Z M 16,15C 16.5523,15 17,15.4477 17,16C 17,16.5523 16.5523,17 16,17C 15.4477,17 15,16.5523 15,16C 15,15.4477 15.4477,15 16,15 Z "/>
    </g>
    <g id="key">
      <path d="M 7,14C 5.9,14 5,13.1 5,12C 5,10.9 5.9,10 7,10C 8.1,10 9,10.9 9,12C 9,13.1 8.1,14 7,14 Z M 12.65,10C 11.83,7.67 9.61,6 7,6C 3.69,6 1,8.69 1,12C 1,15.31 3.69,18 7,18C 9.61,18 11.83,16.33 12.65,14L 17,14L 17,18L 21,18L 21,14L 23,14L 23,10L 12.65,10 Z "/>
    </g>
    <g id="label">
      <path d="M 17.6323,5.84277C 17.2703,5.33173 16.6733,4.99774 15.9993,4.99774L 4.9993,5.00775C 3.8953,5.00775 2.9993,5.89374 2.9993,6.99774L 2.9993,16.9977C 2.9993,18.1027 3.8953,18.9877 4.9993,18.9877L 15.9993,18.9977C 16.6733,18.9977 17.2703,18.6647 17.6323,18.1537L 21.9993,11.9977L 17.6323,5.84277 Z "/>
    </g>
    <g id="lan">
      <path d="M 10,2C 8.89199,2 8,2.892 8,4L 8,7C 8,8.108 8.89199,9 10,9L 11,9L 11,11L 2,11L 2,13L 6,13L 6,15L 5,15C 3.89199,15 3,15.892 3,17L 3,20C 3,21.108 3.89199,22 5,22L 9,22C 10.108,22 11,21.108 11,20L 11,17C 11,15.892 10.108,15 9,15L 8,15L 8,13L 16,13L 16,15L 15,15C 13.892,15 13,15.892 13,17L 13,20C 13,21.108 13.892,22 15,22L 19,22C 20.108,22 21,21.108 21,20L 21,17C 21,15.892 20.108,15 19,15L 18,15L 18,13L 22,13L 22,11L 13,11L 13,9L 14,9C 15.108,9 16,8.108 16,7L 16,4C 16,2.892 15.108,2 14,2L 10,2 Z M 10,4L 14,4L 14,7L 10,7L 10,4 Z M 5,17L 9,17L 9,20L 5,20L 5,17 Z M 15,17L 19,17L 19,20L 15,20L 15,17 Z "/>
    </g>
    <g id="link">
      <path d="M 15.9995,5.99817L 12.9995,5.99817L 12.9995,7.89813L 15.9995,7.89813C 18.2635,7.89813 20.0995,9.73413 20.0995,11.9982C 20.0995,14.2621 18.2635,16.0981 15.9995,16.0981L 12.9995,16.0981L 12.9995,17.9982L 15.9995,17.9982C 19.3145,17.9982 21.9995,15.3121 21.9995,11.9982C 21.9995,8.68414 19.3145,5.99817 15.9995,5.99817 Z M 3.89948,11.9982C 3.89948,9.73413 5.7355,7.89813 7.99948,7.89813L 10.9995,7.89813L 10.9995,5.99817L 7.99948,5.99817C 4.68649,5.99817 1.99948,8.68414 1.99948,11.9982C 1.99948,15.3121 4.68649,17.9982 7.99948,17.9982L 10.9995,17.9982L 10.9995,16.0981L 7.99948,16.0981C 5.7355,16.0981 3.89948,14.2621 3.89948,11.9982 Z M 7.99948,12.9982L 15.9995,12.9982L 15.9995,10.9982L 7.99948,10.9982L 7.99948,12.9982 Z "/>
    </g>
    <g id="list">
      <path d="M3 13h2v-2H3v2zm0 4h2v-2H3v2zm0-8h2V7H3v2zm4 4h14v-2H7v2zm0 4h14v-2H7v2zM7 7v2h14V7H7z"/>
    </g>
    <g id="lock">
      <path d="M 11.9994,16.998C 13.1044,16.998 13.9994,16.1021 13.9994,14.998C 13.9994,13.894 13.1044,12.998 11.9994,12.998C 10.8954,12.998 9.9994,13.894 9.9994,14.998C 9.9994,16.1021 10.8954,16.998 11.9994,16.998 Z M 17.9994,7.99813C 19.1034,7.99813 19.9994,8.89413 19.9994,9.99813L 19.9994,19.9981C 19.9994,21.1021 19.1034,21.9981 17.9994,21.9981L 5.99938,21.9981C 4.89539,21.9981 3.99938,21.1021 3.99938,19.9981L 3.99938,9.99813C 3.99938,8.89413 4.89539,7.99813 5.99938,7.99813L 6.99938,7.99813L 6.99938,5.99813C 6.99938,3.23714 9.23838,0.998133 11.9994,0.998133C 14.7604,0.998133 16.9994,3.23714 16.9994,5.99813L 16.9994,7.99813L 17.9994,7.99813 Z M 12,3C 10.3431,3 9,4.34315 9,6L 9,8L 15,8L 15,6C 15,4.34315 13.6569,3 12,3 Z "/>
    </g>
    <g id="loop">
      <path d="M12 4V1L8 5l4 4V6c3.31 0 6 2.69 6 6 0 1.01-.25 1.97-.7 2.8l1.46 1.46C19.54 15.03 20 13.57 20 12c0-4.42-3.58-8-8-8zm0 14c-3.31 0-6-2.69-6-6 0-1.01.25-1.97.7-2.8L5.24 7.74C4.46 8.97 4 10.43 4 12c0 4.42 3.58 8 8 8v3l4-4-4-4v3z"/>
    </g>
    <g id="map">
      <path d="M 14.9994,18.9981L 8.99939,16.8911L 8.99939,4.99807L 14.9994,7.10506M 20.4994,2.99807C 20.4444,2.99807 20.3924,3.00406 20.3434,3.02306L 14.9994,5.09807L 8.99939,2.99807L 3.3624,4.89606C 3.1524,4.96607 2.99939,5.14707 2.99939,5.37607L 2.99939,20.4981C 2.99939,20.7741 3.22339,20.9981 3.49939,20.9981C 3.55438,20.9981 3.60638,20.9921 3.6564,20.9731L 8.99939,18.8981L 14.9994,20.9981L 20.6374,19.1001C 20.8474,19.0271 20.9994,18.8491 20.9994,18.6191L 20.9994,3.49807C 20.9994,3.22108 20.7764,2.99807 20.4994,2.99807 Z "/>
    </g>
    <g id="margin">
      <path d="M 14.634,6.77756L 12.9019,5.77756L 18.5,2.08141L 18.0981,8.77756L 16.366,7.77756L 8.73204,21L 6.42264,21L 14.634,6.77756 Z M 17.5,12C 19.433,12 21,13.7386 21,16.5C 21,19.2614 19.433,21 17.5,21C 15.567,21 14,19.2614 14,16.5C 14,13.7386 15.567,12 17.5,12 Z M 17.5,14C 16.6716,14 16,14.8431 16,16.5C 16,18.1569 16.6716,19 17.5,19C 18.3284,19 19,18.1569 19,16.5C 19,14.8431 18.3284,14 17.5,14 Z M 7.5,5.00001C 9.43299,5.00001 11,6.73858 11,9.5C 11,12.2614 9.433,14 7.5,14C 5.567,14 4,12.2614 4,9.5C 4,6.73858 5.567,5.00001 7.5,5.00001 Z M 7.5,7.00001C 6.67157,7.00001 6,7.84315 6,9.5C 6,11.1569 6.67157,12 7.5,12C 8.32843,12 9,11.1569 9,9.5C 9,7.84315 8.32842,7.00001 7.5,7.00001 Z "/>
    </g>
    <g id="medium">
      <path d="M 21.9288,6.61625L 15.8894,16.4716L 11.5719,9.42603L 15.0087,3.84105C 15.1668,3.58425 15.4947,3.46648 15.7792,3.54857L 21.9288,6.61625 Z M 22,19.7818C 22,20.3517 21.504,20.5657 20.8923,20.2599L 16.1836,17.9055L 22,8.41393L 22,19.7818 Z M 8.98814,19.9374C 8.98814,20.5049 8.57267,20.7616 8.0651,20.5078L 2.55379,17.7572C 2.24918,17.6049 1.99997,17.2017 1.99997,16.8611L 1.99997,4.1393C 1.99997,3.68523 2.33231,3.47987 2.7384,3.68294L 8.70478,6.66122L 8.98814,7.12362L 8.98814,19.9374 Z M 15.2858,17.4566L 10,14.8137L 10,8.81372L 15.2858,17.4566 Z "/>
    </g>
    <g id="menu">
      <path d="M3 18h18v-2H3v2zm0-5h18v-2H3v2zm0-7v2h18V6H3z"/>
    </g>
    <g id="message">
      <path d="M 19.9994,1.99807L 3.99938,1.99807C 2.89539,1.99807 2.01038,2.89306 2.01038,3.99807L 1.99938,21.9981L 5.99938,17.9981L 19.9994,17.9981C 21.1029,17.9981 21.9994,17.1021 21.9994,15.9981L 21.9994,3.99807C 21.9994,2.89306 21.1029,1.99807 19.9994,1.99807 Z "/>
    </g>
    <g id="more">
      <path d="M22 3H7c-.69 0-1.23.35-1.59.88L0 12l5.41 8.11c.36.53.97.89 1.66.89H22c1.1 0 2-.9 2-2V5c0-1.1-.9-2-2-2zM9 13.5c-.83 0-1.5-.67-1.5-1.5s.67-1.5 1.5-1.5 1.5.67 1.5 1.5-.67 1.5-1.5 1.5zm5 0c-.83 0-1.5-.67-1.5-1.5s.67-1.5 1.5-1.5 1.5.67 1.5 1.5-.67 1.5-1.5 1.5zm5 0c-.83 0-1.5-.67-1.5-1.5s.67-1.5 1.5-1.5 1.5.67 1.5 1.5-.67 1.5-1.5 1.5z"/>
    </g>
    <g id="no">
      <path d="M 12,2C 17.5228,2 22,6.47716 22,12C 22,17.5228 17.5228,22 12,22C 6.47715,22 2,17.5228 2,12C 2,6.47716 6.47715,2 12,2 Z M 12,4C 10.1513,4 8.44904,4.62708 7.09436,5.68015L 18.3199,16.9056C 19.3729,15.551 20,13.8487 20,12C 20,7.58173 16.4183,4 12,4 Z M 4,12C 4,16.4183 7.58172,20 12,20C 13.8487,20 15.551,19.3729 16.9056,18.3199L 5.68014,7.09436C 4.62708,8.44904 4,10.1513 4,12 Z "/>
    </g>
    <g id="open_in_new">
      <path d="M19 19H5V5h7V3H5c-1.11 0-2 .9-2 2v14c0 1.1.89 2 2 2h14c1.1 0 2-.9 2-2v-7h-2v7zM14 3v2h3.59l-9.83 9.83 1.41 1.41L19 6.41V10h2V3h-7z"/>
    </g>
    <g id="pen">
      <path d="M 20.7062,7.0411C 20.3719,7.37542 20.0376,7.70974 20.0307,8.03718C 20.0239,8.36461 20.3444,8.68515 20.6649,9.0057C 21.1363,9.4771 21.6077,9.9485 21.5893,10.4384C 21.5708,10.9283 21.0625,11.4366 20.5541,11.9449L 16.4223,16.0768L 15.0081,14.6625L 19.2507,10.4199L 18.2892,9.45836L 16.8737,10.874L 13.1237,7.12402L 16.9562,3.2911C 17.3472,2.90002 17.9802,2.90002 18.3702,3.2911L 20.7062,5.62708C 21.0972,6.01701 21.0972,6.65002 20.7062,7.0411 Z M 2.99917,17.248L 12.5635,7.68425L 16.3135,11.4342L 6.74917,20.998L 2.99917,20.998L 2.99917,17.248 Z "/>
    </g>
    <g id="pi">
      <path d="M 3.99875,5L 3.99875,7.0025L 6.00125,7.0025L 6.00125,18.9988L 7.9975,18.9988L 7.9975,7.0025L 13.9987,7.0025L 13.9987,16.0012C 13.9987,17.6563 15.3413,18.9988 17.0025,18.9988C 18.6575,18.9988 20,17.6563 20,16.0012L 17.9975,16.0012C 17.9975,16.5525 17.5537,17.0025 17.0025,17.0025C 16.445,17.0025 16.0012,16.5525 16.0012,16.0012L 16.0012,7.0025L 17.9975,7.0025L 17.9975,5"/>
    </g>
    <g id="place">
      <path d="M12 2C8.13 2 5 5.13 5 9c0 5.25 7 13 7 13s7-7.75 7-13c0-3.87-3.13-7-7-7zm0 9.5c-1.38 0-2.5-1.12-2.5-2.5s1.12-2.5 2.5-2.5 2.5 1.12 2.5 2.5-1.12 2.5-2.5 2.5z"/>
    </g>
    <g id="print">
      <path d="M19 8H5c-1.66 0-3 1.34-3 3v6h4v4h12v-4h4v-6c0-1.66-1.34-3-3-3zm-3 11H8v-5h8v5zm3-7c-.55 0-1-.45-1-1s.45-1 1-1 1 .45 1 1-.45 1-1 1zm-1-9H6v4h12V3z"/>
    </g>
    <g id="public">
      <path d="M12 2C6.48 2 2 6.48 2 12s4.48 10 10 10 10-4.48 10-10S17.52 2 12 2zm-1 17.93c-3.95-.49-7-3.85-7-7.93 0-.62.08-1.21.21-1.79L9 15v1c0 1.1.9 2 2 2v1.93zm6.9-2.54c-.26-.81-1-1.39-1.9-1.39h-1v-3c0-.55-.45-1-1-1H8v-2h2c.55 0 1-.45 1-1V7h2c1.1 0 2-.9 2-2v-.41c2.93 1.19 5 4.06 5 7.41 0 2.08-.8 3.97-2.1 5.39z"/>
    </g>
    <g id="radio">
      <path d="M 20,6C 21.1046,6 22,6.89543 22,8L 22,20C 22,21.1046 21.1046,22 20,22L 4,22C 2.89543,22 2,21.1046 2,20L 2,8C 2,7.15034 2.52983,6.42443 3.27712,6.13463L 15.707,0.986006L 16.4724,2.83377L 8.82842,6L 20,6 Z M 20,8.00001L 4,8.00001L 4,12L 16,12L 16,10L 18,10L 18,12L 20,12L 20,8.00001 Z M 7,14C 5.34314,14 4,15.3431 4,17C 4,18.6569 5.34314,20 7,20C 8.65685,20 10,18.6569 10,17C 10,15.3431 8.65685,14 7,14 Z "/>
    </g>
    <g id="read">
      <path d="M 21.5898,11.59L 23,13L 13.51,22.5L 8.42,17.41L 9.83,16L 13.5,19.68L 21.5898,11.59 Z M 4,16L 4,3L 6,3L 8.99999,3.00001C 11.2091,3.00001 13,4.79087 13,7.00001C 13,8.54108 12.1285,9.8786 10.8515,10.5466L 14,16L 12,16L 9.11325,11L 6,11L 6,16L 4,16 Z M 6,9.00001L 9,9.00001C 10.1046,9.00001 11,8.10458 11,7.00001C 11,5.89544 10.1046,5.00001 9,5.00001L 6,5.00001L 6,9.00001 Z "/>
    </g>
    <g id="remove">
      <path d="M19 13H5v-2h14v2z"/>
    </g>
    <g id="reorder">
      <path d="M3 15h18v-2H3v2zm0 4h18v-2H3v2zm0-8h18V9H3v2zm0-6v2h18V5H3z"/>
    </g>
    <g id="repeat">
      <path d="M 17,17L 7,17L 7,14L 3,18L 7,22L 7,19L 19,19L 19,13L 17,13M 7,7L 17,7L 17,10L 21,6L 17,2L 17,5L 5,5L 5,11L 7,11L 7,7 Z "/>
    </g>
    <g id="rocket">
      <path d="M 2.80761,14.1213L 5.63604,11.2929L 8.17304,10.7855C 11.39,6.40972 17.5532,4.22183 19.7782,4.22183C 19.7782,6.44683 17.5903,12.61 13.2145,15.827L 12.7071,18.364L 9.87868,21.1924L 9.17157,17.6569C 7.75736,17.6569 7.75736,17.6569 7.05025,16.9497C 6.34315,16.2426 6.34315,16.2426 6.34315,14.8284L 2.80761,14.1213 Z M 5.63604,16.9497L 7.05025,18.364L 4.38603,21.0282L 2.97181,21.0282L 2.97181,19.614L 5.63604,16.9497 Z M 4.22182,15.5355L 5.45926,15.7123L 3.01472,18.1569L 3.01472,16.7426L 4.22182,15.5355 Z M 8.28769,18.5407L 8.46447,19.7782L 7.25735,20.9853L 5.84314,20.9853L 8.28769,18.5407 Z M 13,9.5C 12.1716,9.5 11.5,10.1716 11.5,11C 11.5,11.8284 12.1716,12.5 13,12.5C 13.8284,12.5 14.5,11.8284 14.5,11C 14.5,10.1716 13.8284,9.5 13,9.5 Z "/>
    </g>
    <g id="router">
      <path d="M20.2 5.9l.8-.8C19.6 3.7 17.8 3 16 3s-3.6.7-5 2.1l.8.8C13 4.8 14.5 4.2 16 4.2s3 .6 4.2 1.7zm-.9.8c-.9-.9-2.1-1.4-3.3-1.4s-2.4.5-3.3 1.4l.8.8c.7-.7 1.6-1 2.5-1 .9 0 1.8.3 2.5 1l.8-.8zM19 13h-2V9h-2v4H5c-1.1 0-2 .9-2 2v4c0 1.1.9 2 2 2h14c1.1 0 2-.9 2-2v-4c0-1.1-.9-2-2-2zM8 18H6v-2h2v2zm3.5 0h-2v-2h2v2zm3.5 0h-2v-2h2v2z"/>
    </g>
    <g id="run">
      <path d="M 17.1172,9.99807L 16.0432,8.18406L 15.3102,11.0521L 17.7992,15.5921L 17.7992,21.9981L 15.9992,21.9981L 15.9992,16.9981L 13.6682,13.8901L 12.0723,18.4002L 7.24992,20.5001L 6.19999,19L 10.394,16.5275L 12.9062,6.67405L 10.7992,7.33105L 10.7992,10.9981L 8.99919,10.9981L 8.99919,5.79807L 14.4242,4.10606L 14.9152,4.03406C 15.5372,4.03406 16.0812,4.36806 16.3772,4.86707L 18.3772,8.19806L 21.9992,8.19806L 21.9992,9.99807L 17.1172,9.99807 Z M 16.9992,3.79808C 16.0042,3.79808 15.1992,2.99107 15.1992,1.99909C 15.1992,1.00308 16.0042,0.198067 16.9992,0.198067C 17.9912,0.198067 18.7992,1.00308 18.7992,1.99909C 18.7992,2.99107 17.9912,3.79808 16.9992,3.79808 Z M 7,9L 7,11L 4,11C 3.44772,11 3,10.5523 3,10C 3,9.44772 3.44772,9 4,9L 7,9 Z M 9.25,13L 8.75,15L 5,15C 4.44772,15 4,14.5523 4,14C 4,13.4477 4.44772,13 5,13L 9.25,13 Z M 7,5L 7,7L 3,7C 2.44772,7 2,6.55229 2,6C 2,5.44772 2.44772,5 3,5L 7,5 Z "/>
    </g>
    <g id="script">
      <path d="M 14,20C 15.1046,20 16,19.1046 16,18L 16,5L 9,4.99999C 8.44771,5 8,5.44771 8,5.99999L 8,16L 5,16L 5,5.00001C 5,3.34316 6.34319,2.00001 8.00004,2.00001L 19,2.00001C 20.6568,2.00001 22,3.34316 22,5.00001L 22,6L 18,6L 18,18L 18,19C 18,20.6569 16.6568,22 15,22L 5,22C 3.34315,22 2,20.6569 2,19L 2,18L 12,18C 12,19.1046 12.8954,20 14,20 Z "/>
    </g>
    <g id="search">
      <path d="M15.5 14h-.79l-.28-.27C15.41 12.59 16 11.11 16 9.5 16 5.91 13.09 3 9.5 3S3 5.91 3 9.5 5.91 16 9.5 16c1.61 0 3.09-.59 4.23-1.57l.27.28v.79l5 4.99L20.49 19l-4.99-5zm-6 0C7.01 14 5 11.99 5 9.5S7.01 5 9.5 5 14 7.01 14 9.5 11.99 14 9.5 14z"/>
    </g>
    <g id="select">
      <path d="M 4,3L 5,3L 5,5L 3,5L 3,4C 3,3.44772 3.44771,3 4,3 Z M 20,3.00001C 20.5523,3.00001 21,3.44773 21,4.00001L 21,5.00001L 19,5.00001L 19,3.00001L 20,3.00001 Z M 15,5.00001L 15,3.00001L 17,3.00001L 17,5.00001L 15,5.00001 Z M 11,5.00001L 11,3.00001L 13,3.00001L 13,5.00001L 11,5.00001 Z M 7,5.00001L 7,3.00001L 9,3.00001L 9,5.00001L 7,5.00001 Z M 21,20C 21,20.5523 20.5523,21 20,21L 19,21L 19,19L 21,19L 21,20 Z M 15,21L 15,19L 17,19L 17,21L 15,21 Z M 11,21L 11,19L 13,19L 13,21L 11,21 Z M 7,21L 7,19L 9,19L 9,21L 7,21 Z M 4,21C 3.44771,21 3,20.5523 3,20L 3,19L 5,19L 5,21L 4,21 Z M 3,15L 5,15L 5,17L 3,17L 3,15 Z M 21,15L 21,17L 19,17L 19,15L 21,15 Z M 3,11L 5,11L 5,13L 3,13L 3,11 Z M 21,11L 21,13L 19,13L 19,11L 21,11 Z M 3,7.00001L 5,7.00001L 5,9.00001L 3,9.00001L 3,7.00001 Z M 21,7.00001L 21,9.00001L 19,9.00001L 19,7.00001L 21,7.00001 Z "/>
    </g>
    <g id="sort">
      <path d="M 10,13L 10,11L 18,11L 18,13L 10,13 Z M 10,19L 10,17L 14,17L 14,19L 10,19 Z M 10.0006,7.002L 10,5L 22,5L 22.0006,7.002L 10.0006,7.002 Z M 6.00001,17L 8.50001,17L 5.00001,20.5L 1.50001,17L 4.00001,17L 4,7L 1.5,7L 5,3.5L 8.5,7L 6,7L 6.00001,17 Z "/>
    </g>
    <g id="spa">
      <path fill="#607D8B"
            d="M8.55 12c-1.07-.71-2.25-1.27-3.53-1.61 1.28.34 2.46.9 3.53 1.61zm10.43-1.61c-1.29.34-2.49.91-3.57 1.64 1.08-.73 2.28-1.3 3.57-1.64z"/>
      <path d="M15.49 9.63c-.18-2.79-1.31-5.51-3.43-7.63-2.14 2.14-3.32 4.86-3.55 7.63 1.28.68 2.46 1.56 3.49 2.63 1.03-1.06 2.21-1.94 3.49-2.63zm-6.5 2.65c-.14-.1-.3-.19-.45-.29.15.11.31.19.45.29zm6.42-.25c-.13.09-.27.16-.4.26.13-.1.27-.17.4-.26zM12 15.45C9.85 12.17 6.18 10 2 10c0 5.32 3.36 9.82 8.03 11.49.63.23 1.29.4 1.97.51.68-.12 1.33-.29 1.97-.51C18.64 19.82 22 15.32 22 10c-4.18 0-7.85 2.17-10 5.45z"/>
    </g>
    <g id="star">
      <path d="M12 17.27L18.18 21l-1.64-7.03L22 9.24l-7.19-.61L12 2 9.19 8.63 2 9.24l5.46 4.73L5.82 21z"/>
    </g>
    <g id="style">
      <path d="M2.53 19.65l1.34.56v-9.03l-2.43 5.86c-.41 1.02.08 2.19 1.09 2.61zm19.5-3.7L17.07 3.98c-.31-.75-1.04-1.21-1.81-1.23-.26 0-.53.04-.79.15L7.1 5.95c-.75.31-1.21 1.03-1.23 1.8-.01.27.04.54.15.8l4.96 11.97c.31.76 1.05 1.22 1.83 1.23.26 0 .52-.05.77-.15l7.36-3.05c1.02-.42 1.51-1.59 1.09-2.6zM7.88 8.75c-.55 0-1-.45-1-1s.45-1 1-1 1 .45 1 1-.45 1-1 1zm-2 11c0 1.1.9 2 2 2h1.45l-3.45-8.34v6.34z"/>
    </g>
    <g id="tab">
      <path d="M 18.9994,18.998L 4.99939,19.0001L 4.99939,4.99805L 11.9994,4.99805L 11.9994,8.99805L 18.9994,8.99805M 18.9994,2.99805L 4.99939,2.99805C 3.89539,2.99805 2.99939,3.89404 2.99939,4.99805L 2.99939,18.998C 2.99939,20.1021 3.89539,20.998 4.99939,20.998L 18.9994,20.998C 20.1034,20.998 20.9994,20.1021 20.9994,18.998L 20.9994,4.99805C 20.9994,3.89404 20.1034,2.99805 18.9994,2.99805 Z "/>
    </g>
    <g id="table">
      <path d="M 5,4L 19,4C 20.1046,4 21,4.89543 21,6L 21,18C 21,19.1046 20.1046,20 19,20L 5,20C 3.89543,20 3,19.1046 3,18L 3,6C 3,4.89543 3.89543,4 5,4 Z M 5,8L 5,12L 11,12L 11,8L 5,8 Z M 13,8L 13,12L 19,12L 19,8L 13,8 Z M 5,14L 5,18L 11,18L 11,14L 5,14 Z M 13,14L 13,18L 19,18L 19,14L 13,14 Z "/>
    </g>
    <g id="tag">
      <path d="M 5.49888,6.99854C 4.67088,6.99854 3.99888,6.32654 3.99888,5.49854C 3.99888,4.66956 4.67088,3.99854 5.49888,3.99854C 6.32788,3.99854 6.99888,4.66956 6.99888,5.49854C 6.99888,6.32654 6.32788,6.99854 5.49888,6.99854 Z M 21.4099,11.5796L 12.4139,2.58362C 12.0519,2.22162 11.5519,1.9986 10.9989,1.9986L 3.99887,1.9986C 2.89487,1.9986 1.99887,2.89362 1.99887,3.9986L 1.99887,10.9986C 1.99887,11.5516 2.22387,12.0526 2.58687,12.4146L 11.5849,21.4126C 11.9479,21.7746 12.4479,21.9986 12.9989,21.9986C 13.5519,21.9986 14.0519,21.7736 14.4139,21.4126L 21.4139,14.4126C 21.7759,14.0496 21.9989,13.5506 21.9989,12.9986C 21.9989,12.4436 21.7739,11.9416 21.4099,11.5796 Z "/>
    </g>
    <g id="target">
      <path d="M 11.0013,2.0025L 11.0013,4.0725C 7.3825,4.53125 4.53125,7.3825 4.0725,11.0012L 2.0025,11.0012L 2.0025,12.9975L 4.0725,12.9975C 4.53125,16.6213 7.3825,19.4675 11.0013,19.9262L 11.0013,22.0025L 12.9975,22.0025L 12.9975,19.9313C 16.6212,19.4675 19.4675,16.6213 19.9263,12.9975L 22.0025,12.9975L 22.0025,11.0012L 19.9312,11.0012C 19.4675,7.3825 16.6212,4.53125 12.9975,4.0725L 12.9975,2.0025M 11.0013,6.08375L 11.0013,7.9975L 12.9975,7.9975L 12.9975,6.08875C 15.5175,6.51375 17.485,8.48625 17.915,11.0012L 16.0012,11.0012L 16.0012,12.9975L 17.91,12.9975C 17.485,15.5175 15.5125,17.485 12.9975,17.915L 12.9975,16.0012L 11.0013,16.0012L 11.0013,17.91C 8.48625,17.485 6.51375,15.5125 6.08375,12.9975L 7.9975,12.9975L 7.9975,11.0012L 6.08875,11.0012C 6.51375,8.48625 8.48625,6.51375 11.0013,6.08375 Z M 12.0025,11.0012C 11.445,11.0012 11.0013,11.445 11.0013,12.0025C 11.0013,12.5538 11.445,12.9975 12.0025,12.9975C 12.5537,12.9975 12.9975,12.5538 12.9975,12.0025C 12.9975,11.445 12.5537,11.0012 12.0025,11.0012 Z "/>
    </g>
    <g id="tent">
      <path d="M 4,6C 4,7.19467 4.3928,8.26702 5,9C 3.34314,9 2,7.65686 2,6C 2,4.34315 3.34315,3 5.01559,3.00004C 4.3928,3.73299 4,4.80533 4,6 Z M 2,21L 2,19L 4.757,19L 12,4.78481L 19.243,19L 22,19L 22,21L 2,21 Z M 12,9.19019L 7.00165,19L 16.9984,19L 12,9.19019 Z "/>
    </g>
    <g id="timer">
      <path d="M 12,20C 8.13,20 5,16.87 5,13C 5,9.13 8.13,6 12,6C 15.87,6 19,9.13 19,13C 19,16.87 15.87,20 12,20 Z M 19.03,7.39L 20.45,5.97C 20.02,5.46 19.55,4.98 19.04,4.56L 17.62,5.98C 16.07,4.74 14.12,4 12,4C 7.03,4 3,8.03 3,13C 3,17.97 7.02,22 12,22C 16.98,22 21,17.97 21,13C 21,10.88 20.26,8.93 19.03,7.39 Z M 11,14L 13,14L 13,8L 11,8M 15,1L 9,1L 9,3L 15,3L 15,1 Z "/>
    </g>
    <g id="title">
      <path d="M5 4v3h5.5v12h3V7H19V4z"/>
    </g>
    <g id="toc">
      <path d="M3 9h14V7H3v2zm0 4h14v-2H3v2zm0 4h14v-2H3v2zm16 0h2v-2h-2v2zm0-10v2h2V7h-2zm0 6h2v-2h-2v2z"/>
    </g>
    <g id="tor">
      <path d="M 12,14C 11,14 9,15 8.99999,16C 9,18 12,18 12,18L 12,17C 11.4477,17 11,16.5523 11,16C 11,15.4477 11.4477,15 12,15L 12,14 Z M 12,19C 12,19 7.99999,18.5 7.99999,16.5C 7.99999,13.5 11,12.75 12,12.75L 12,11.5C 11,11.5 7,13 7,16C 7,20 12,20 12,20L 12,19 Z M 10.0723,7.03144L 11.2606,7.56007C 11.6926,5.1152 12.8396,3.50943 12.8396,3.50943C 12.4146,4.52948 12.1332,5.37719 11.9469,6.05257C 13.1635,3.54747 15.6069,2 15.6069,2C 14.4252,3.18169 13.5647,4.45512 12.9664,5.52647C 14.5538,3.84729 16.739,2.75472 16.739,2.75471C 14.0534,4.47347 12.8357,7.20137 12.5374,7.96124L 13.0896,8.03774C 13.0896,8.55637 13.0912,9.04403 13.3428,9.42138C 14.0975,11.3082 18,11.4717 18,16C 18,20.5283 13.9717,22 11.8333,22C 9.69497,22 5,21.0314 5,16C 5,10.9686 9.94654,10.9308 10.827,8.91824C 10.9528,8.54088 10.0723,7.03145 10.0723,7.03144 Z "/>
    </g>
    <g id="tree">
      <path d="M 11,21L 11,16.7439C 10.5308,16.9098 10.026,17 9.5,17C 7.01472,17 5,14.9853 5,12.5C 5,11.2346 5.52228,10.0912 6.36302,9.27364C 6.12938,8.7294 6,8.12981 6,7.5C 6,5.01472 8.01472,3 10.5,3C 12.0627,3 13.4393,3.79654 14.2461,5.00576C 14.3302,5.00193 14.4149,5 14.5,5C 17.5376,5 20,7.46243 20,10.5C 20,13.5376 17.5376,16 14.5,16C 13.98,16 13.4768,15.9278 13,15.793L 13,21L 11,21 Z "/>
    </g>
    <g id="update">
      <path d="M21 10.12h-6.78l2.74-2.82c-2.73-2.7-7.15-2.8-9.88-.1-2.73 2.71-2.73 7.08 0 9.79 2.73 2.71 7.15 2.71 9.88 0C18.32 15.65 19 14.08 19 12.1h2c0 1.98-.88 4.55-2.64 6.29-3.51 3.48-9.21 3.48-12.72 0-3.5-3.47-3.53-9.11-.02-12.58 3.51-3.47 9.14-3.47 12.65 0L21 3v7.12zM12.5 8v4.25l3.5 2.08-.72 1.21L11 13V8h1.5z"/>
    </g>
    <g id="usb">
      <path d="M 14.9994,6.99807L 14.9994,10.9981L 15.9994,10.9981L 15.9994,12.9981L 12.9994,12.9981L 12.9994,4.99807L 14.9994,4.99807L 11.9994,0.998068L 8.9994,4.99807L 10.9994,4.99807L 10.9994,12.9981L 7.9994,12.9981L 7.9994,10.9281C 8.7034,10.5611 9.1994,9.84707 9.1994,8.99807C 9.1994,7.78307 8.2144,6.79807 6.9994,6.79807C 5.7844,6.79807 4.7994,7.78307 4.7994,8.99807C 4.7994,9.84707 5.2954,10.5611 5.9994,10.9281L 5.9994,12.9981C 5.9994,14.1031 6.8934,14.9981 7.9994,14.9981L 10.9994,14.9981L 10.9994,18.0491C 10.2894,18.4141 9.7994,19.1451 9.7994,19.9981C 9.7994,21.2131 10.7844,22.1981 11.9994,22.1981C 13.2144,22.1981 14.1994,21.2131 14.1994,19.9981C 14.1994,19.1451 13.7084,18.4141 12.9994,18.0491L 12.9994,14.9981L 15.9994,14.9981C 17.1044,14.9981 17.9994,14.1031 17.9994,12.9981L 17.9994,10.9981L 18.9994,10.9981L 18.9994,6.99807L 14.9994,6.99807 Z "/>
    </g>
    <g id="visibility">
      <path d="M12 4.5C7 4.5 2.73 7.61 1 12c1.73 4.39 6 7.5 11 7.5s9.27-3.11 11-7.5c-1.73-4.39-6-7.5-11-7.5zM12 17c-2.76 0-5-2.24-5-5s2.24-5 5-5 5 2.24 5 5-2.24 5-5 5zm0-8c-1.66 0-3 1.34-3 3s1.34 3 3 3 3-1.34 3-3-1.34-3-3-3z"/>
    </g>
    <g id="visibility_off">
      <path d="M12 7c2.76 0 5 2.24 5 5 0 .65-.13 1.26-.36 1.83l2.92 2.92c1.51-1.26 2.7-2.89 3.43-4.75-1.73-4.39-6-7.5-11-7.5-1.4 0-2.74.25-3.98.7l2.16 2.16C10.74 7.13 11.35 7 12 7zM2 4.27l2.28 2.28.46.46C3.08 8.3 1.78 10.02 1 12c1.73 4.39 6 7.5 11 7.5 1.55 0 3.03-.3 4.38-.84l.42.42L19.73 22 21 20.73 3.27 3 2 4.27zM7.53 9.8l1.55 1.55c-.05.21-.08.43-.08.65 0 1.66 1.34 3 3 3 .22 0 .44-.03.65-.08l1.55 1.55c-.67.33-1.41.53-2.2.53-2.76 0-5-2.24-5-5 0-.79.2-1.53.53-2.2zm4.31-.78l3.15 3.15.02-.16c0-1.66-1.34-3-3-3l-.17.01z"/>
    </g>
    <g id="volume">
      <path d="M 3,9.00002L 6.99998,9.00004L 12,4.00002L 12,20L 6.99998,15L 2.99998,15L 3,9.00002 Z M 20.9999,12.0001C 20.9999,16.2832 18.008,19.8676 14,20.777L 14,18.7102C 16.8914,17.8496 18.9999,15.1711 18.9999,12.0001C 18.9999,8.8291 16.8914,6.15058 14,5.29L 14,3.22307C 18.008,4.13255 20.9999,7.71688 20.9999,12.0001 Z M 17,12C 17,14.0503 15.7659,15.8124 14,16.584L 14,7.41605C 15.7659,8.1876 17,9.94968 17,12 Z "/>
    </g>
    <g id="web">
      <path d="M 16.3607,13.998C 16.4427,13.3411 16.4997,12.6771 16.4997,11.998C 16.4997,11.319 16.4427,10.655 16.3607,9.99805L 19.7367,9.99805C 19.9027,10.6381 19.9997,11.306 19.9997,11.998C 19.9997,12.6901 19.9027,13.358 19.7367,13.998M 14.5927,19.559C 15.1927,18.446 15.6487,17.248 15.9717,15.998L 18.9207,15.998C 17.9617,17.652 16.4297,18.928 14.5927,19.559 Z M 14.3387,13.998L 9.6597,13.998C 9.5647,13.343 9.49969,12.6791 9.49969,11.998C 9.49969,11.317 9.5647,10.6531 9.6597,9.99805L 14.3387,9.99805C 14.4337,10.6531 14.4997,11.317 14.4997,11.998C 14.4997,12.6791 14.4337,13.343 14.3387,13.998 Z M 11.9977,19.962C 11.1657,18.762 10.5157,17.4291 10.0887,15.998L 13.9097,15.998C 13.4817,17.4291 12.8317,18.762 11.9977,19.962 Z M 8.0257,7.99805L 5.07669,7.99805C 6.0347,6.34204 7.56668,5.06403 9.40469,4.43506C 8.80469,5.54803 8.34869,6.74603 8.0257,7.99805 Z M 5.07669,15.998L 8.0257,15.998C 8.34869,17.249 8.80469,18.4481 9.40469,19.561C 7.56668,18.9321 6.0347,17.6541 5.07669,15.998 Z M 4.26068,13.998C 4.0957,13.358 3.99969,12.6901 3.99969,11.998C 3.99969,11.306 4.0957,10.6381 4.26068,9.99805L 7.6377,9.99805C 7.55569,10.655 7.49969,11.319 7.49969,11.998C 7.49969,12.6771 7.55569,13.3411 7.6377,13.998M 11.9977,4.03406C 12.8317,5.23407 13.4817,6.56702 13.9097,7.99805L 10.0887,7.99805C 10.5157,6.56702 11.1657,5.23407 11.9977,4.03406 Z M 18.9207,7.99805L 15.9717,7.99805C 15.6487,6.74805 15.1927,5.55005 14.5927,4.43707C 16.4297,5.06805 17.9617,6.34406 18.9207,7.99805 Z M 11.9937,1.99805C 6.46768,1.99805 1.99969,6.47504 1.99969,11.998C 1.99969,17.5211 6.46768,21.998 11.9937,21.998C 17.5207,21.998 21.9997,17.5211 21.9997,11.998C 21.9997,6.47504 17.5207,1.99805 11.9937,1.99805 Z "/>
    </g>
    <g id="work">
      <path d="M20 6h-4V4c0-1.11-.89-2-2-2h-4c-1.11 0-2 .89-2 2v2H4c-1.11 0-1.99.89-1.99 2L2 19c0 1.11.89 2 2 2h16c1.11 0 2-.89 2-2V8c0-1.11-.89-2-2-2zm-6 0h-4V4h4v2z"/>
    </g>
    <g id="worker">
      <path d="M 12,15C 7.58,15 4.00001,16.79 4.00001,19L 4.00001,21L 20,21L 20,19C 20,16.79 16.42,15 12,15 Z M 8,9C 8,11.209 9.791,13 12,13C 14.209,13 16,11.209 16,9M 11.5,2C 11.195,2 11,2.21 11,2.5L 11,5.5L 10,5.5L 10,3C 10,3 7.75,3.859 7.75,6.75C 7.75,6.75 7,6.892 7,8L 17,8C 16.95,6.892 16.25,6.75 16.25,6.75C 16.25,3.859 14,3 14,3L 14,5.5L 13,5.5L 13,2.5C 13,2.21 12.805,2 12.5,2L 11.5,2 Z "/>
    </g>
  </defs>
</svg>
